<?xml version="1.0" encoding="UTF-8"?>
<svg width="20px" height="20px" viewBox="0 0 20 20" version="1.1" xmlns="http://www.w3.org/2000/svg" xmlns:xlink="http://www.w3.org/1999/xlink">
    <!-- Generator: Sketch 49.3 (51167) - http://www.bohemiancoding.com/sketch -->
    <title>icon_graph</title>
    <desc>Created with Sketch.</desc>
    <defs></defs>
    <g id="icon_graph" stroke="none" stroke-width="1" fill="none" fill-rule="evenodd">
        <g id="Shape" transform="translate(2.000000, 6.000000)" stroke="#000000">
            <path d="M1,3 L5,7" id="Path"></path>
            <path d="M6.69237694,7.03067228 L10.2507378,2.04896705 L6.69237694,7.03067228 Z" id="Path" stroke-linecap="square" stroke-linejoin="round"></path>
            <path d="M12,2 L15,5" id="Path" stroke-linecap="square"></path>
            <path d="M6,9 C5.44771525,9 5,8.55228475 5,8 C5,7.44771525 5.44771525,7 6,7 C6.55228475,7 7,7.44771525 7,8 C7,8.55228475 6.55228475,9 6,9 Z M11,2 C10.4477153,2 10,1.55228475 10,1 C10,0.44771525 10.4477153,0 11,0 C11.5522847,0 12,0.44771525 12,1 C12,1.55228475 11.5522847,2 11,2 Z M15.5,6 C15.2238576,6 15,5.77614237 15,5.5 C15,5.22385763 15.2238576,5 15.5,5 C15.7761424,5 16,5.22385763 16,5.5 C16,5.77614237 15.7761424,6 15.5,6 Z M0.5,3 C0.223857625,3 0,2.77614237 0,2.5 C0,2.22385763 0.223857625,2 0.5,2 C0.776142375,2 1,2.22385763 1,2.5 C1,2.77614237 0.776142375,3 0.5,3 Z" id="Combined-Shape"></path>
        </g>
    </g>
</svg>