<?xml version="1.0" encoding="UTF-8"?>
<svg width="20px" height="20px" viewBox="0 0 20 20" version="1.1" xmlns="http://www.w3.org/2000/svg" xmlns:xlink="http://www.w3.org/1999/xlink">
    <!-- Generator: Sketch 49.3 (51167) - http://www.bohemiancoding.com/sketch -->
    <title>icon_rest</title>
    <desc>Created with Sketch.</desc>
    <defs></defs>
    <g id="icon_rest" stroke="none" stroke-width="1" fill="none" fill-rule="evenodd" stroke-linecap="round" stroke-linejoin="round">
        <path d="M10,4 L8,4 L8,6 L5,9 L5,14 L6,15 L5,16 L5,18 L15,18 L15,16 L14,15 L15,14 L15,9 L12,6 L12,4 L10,4 Z M5,9 L10,9 M15,9 L13,9 M6,15 L9,15 M14,15 L13,15 M8,6 L12,6 L8,6 Z M5,12 C5.66666667,11.3333333 6.66666667,11 8,11 C10,11 11,13 13,13 C14.3333333,13 15,12.6666667 15,12 L5,12 Z" id="bottle" stroke="#000000"></path>
    </g>
</svg>