<?xml version="1.0" encoding="UTF-8"?>
<svg width="20px" height="20px" viewBox="0 0 20 20" version="1.1" xmlns="http://www.w3.org/2000/svg" xmlns:xlink="http://www.w3.org/1999/xlink">
    <!-- Generator: Sketch 49.3 (51167) - http://www.bohemiancoding.com/sketch -->
    <title>icon_jog</title>
    <desc>Created with Sketch.</desc>
    <defs>
        <path d="M13.2399934,2.09487729 L12.4651622,4.1637292 L11.4267831,5.46302092 L7.21001482,11.5246253 C7.17924559,11.5687037 7.16270796,11.6211168 7.16257618,11.6748476 L7.16257618,12.2019437 L6.25070005,12.2019437 L5.87119091,11.6353154 L6.08730028,10.9896228 L7.66858837,8.11167847 C7.67583594,8.09813869 7.68199638,8.08403887 7.68703673,8.06951079 L8.70960303,4.99917641 L9.94300774,4.25860649 C10.0010212,4.22391698 10.0434854,4.16824246 10.0616043,4.10311316 L10.5887004,2.25827705 L10.0616043,2.11596113 L9.57404052,3.86064899 L8.34590677,4.59594795 C8.29234064,4.62895734 8.25145775,4.67913029 8.22994564,4.73826388 L7.17575358,7.87975622 L5.64453961,10.69972 L4.11859661,11.7196508 C4.00339318,11.7968045 3.96768242,11.9500247 4.03689672,12.0701697 L5.88173283,15.2327458 C5.9219239,15.3025202 5.99183001,15.3500906 6.0714874,15.3618844 L7.91632351,15.6254324 L7.95322023,15.6254324 C7.99446549,15.6251688 8.03508483,15.6152528 8.07181683,15.5964421 L8.59891286,15.3355296 C8.67441937,15.2978751 8.72732663,15.2263548 8.74122879,15.1431395 C8.75503212,15.0592983 8.72755724,14.9739087 8.66743535,14.9138527 L7.93740735,14.1864602 L7.68967221,12.4470433 L7.68967221,11.7565475 L11.8484599,5.77927854 L12.902652,4.46153846 C12.9202108,4.43910394 12.9344095,4.41426454 12.9448196,4.38774502 L13.7354637,2.2793609 L13.2399934,2.09487729 Z M8.02701367,15.0245429 L7.90841706,15.1009718 L6.27178389,14.8664141 L4.61670236,12.0200955 L5.35200132,11.5298962 L5.33091748,11.5905123 C5.30555098,11.6677318 5.31721298,11.7523308 5.36254324,11.819799 L5.88963927,12.6104431 C5.9381321,12.6840718 6.02022731,12.7285785 6.10838412,12.7290397 L7.19683742,12.7290397 L7.4261242,14.3472245 C7.43373415,14.4039862 7.45966068,14.4567287 7.49991764,14.4974469 L8.02701367,15.0245429 Z M15.5961127,11.0581453 L15.087465,8.82852907 L15.5381321,8.15384615 L20,3.69197826 L19.6257618,3.31774008 L15.1454456,7.79805633 C15.13352,7.81100313 15.1229122,7.82513589 15.1138198,7.84022402 L14.6420689,8.54389722 L13.8329764,8.74682919 L13.2241805,8.14066875 L13.2241805,7.58458244 L14.4444078,6.60945479 C14.4655576,6.59090759 14.4841706,6.56962609 14.4997529,6.54620326 L16.8558722,2.88025037 L17.3645198,2.37423818 L16.9902817,2 L16.4631856,2.52709603 C16.4503377,2.54086641 16.4388404,2.55588865 16.4289244,2.57189919 L14.0807116,6.22467468 L12.7972327,7.25251194 L11.4794927,8.306704 C11.3711415,8.39301598 11.348114,8.54847636 11.4267831,8.66249382 L13.7987152,12.088618 C13.8201614,12.1196508 13.8480316,12.1457091 13.8804151,12.1650469 L15.1981552,12.955691 C15.3017295,13.0177236 15.4342283,13.0014166 15.5196837,12.9161588 L16.0467798,12.3890628 C16.1270301,12.3081206 16.1461703,12.1847801 16.0942184,12.0833471 L15.5961127,11.0581453 Z M15.290397,12.3969692 L14.1993082,11.7407346 L11.9986823,8.57815846 L12.6970845,8.00625927 L12.6970845,8.24872344 C12.6966892,8.31876132 12.724197,8.38609784 12.7735134,8.43584253 L13.5641575,9.22648658 C13.6324823,9.29645857 13.7339483,9.32284632 13.8277055,9.29500906 L14.6183495,9.09734805 L15.0848295,11.2057322 C15.0870367,11.2263548 15.0914512,11.2466809 15.0980069,11.2663482 L15.5381321,12.1492341 L15.290397,12.3969692 Z M7.95322023,15.6280679 L9.00741229,15.6280679 L9.00741229,16.1551639 L4,16.1551639 L4,15.6280679 L7.95322023,15.6280679 Z M15.3325647,12.9925877 L15.5961127,12.9925877 L15.5961127,13.5196837 L11.3793444,13.5196837 L11.3793444,12.9925877 L15.3325647,12.9925877 Z M17.1774008,17.472904 L19.8128809,17.472904 L19.8128809,18 L17.1774008,18 L17.1774008,17.472904 Z M16.1232087,17.472904 L16.6503047,17.472904 L16.6503047,18 L16.1232087,18 L16.1232087,17.472904 Z" id="path-1"></path>
    </defs>
    <g id="icon_jog" stroke="none" stroke-width="1" fill="none" fill-rule="evenodd" stroke-linecap="round" stroke-linejoin="round">
        <g id="running" fill-rule="nonzero">
            <use fill="#000000" fill-rule="evenodd" xlink:href="#path-1"></use>
            <path stroke="#000000" stroke-width="0.1" d="M13.1931696,2.07734073 L13.2574403,2.04801998 L13.7822801,2.29691707 L12.9913621,4.40601511 C12.9791858,4.43703381 12.9625747,4.46610087 12.9416954,4.49277321 L11.8895029,5.80783494 L7.73967221,11.7565475 L7.73917268,12.4399933 L7.97269869,14.151041 L8.7027713,14.878478 C8.77429649,14.9499248 8.80698777,15.0515081 8.79054532,15.1513785 C8.77400539,15.2503829 8.71105962,15.3354754 8.62109412,15.3803402 L8.09460754,15.6409458 C8.05093338,15.6633117 8.00261963,15.6751178 7.95322023,15.6754324 L7.90925244,15.6749299 L6.06416441,15.4113452 C5.96938995,15.3973132 5.88622301,15.340715 5.83854388,15.2579394 L3.99357183,12.0951287 C3.91122579,11.9521891 3.95371382,11.7698983 4.09081191,11.6780815 L5.6005994,10.6758609 L7.12835133,7.86384942 L8.18295827,4.72117042 C8.20832141,4.6514509 8.25651763,4.59230145 8.32022261,4.55304895 L9.52588553,3.84719178 L10.0746376,2.06768967 L10.6367766,2.27201311 L10.109775,4.1165142 C10.0882174,4.194004 10.0376944,4.26024508 9.968746,4.30147305 L8.75704127,5.01497558 L7.73427456,8.08589942 C7.72477663,8.1111384 7.72477663,8.1111384 7.71240933,8.13575592 L6.13471506,11.0054922 L5.91273387,11.6074913 L6.25070005,12.1519437 L7.11257618,12.2019437 L7.11257633,11.674725 C7.11273314,11.6107854 7.13241954,11.5484316 7.16896956,11.496072 L11.3877242,5.43180549 L12.4183384,4.14619264 L13.1931696,2.07734073 Z M5.26998932,11.6360627 L5.37973633,11.5714987 L5.28369264,11.5740862 C5.27699779,11.5944611 5.27244522,11.6152202 5.26998932,11.6360627 Z M7.94784167,15.0160815 L7.99165833,15.0598982 L7.9999286,14.9825144 L7.94784167,15.0160815 Z M15.6435871,11.0414437 L16.1387209,12.0605538 C16.2005293,12.1812312 16.1777591,12.3279705 16.0821351,12.4244181 L15.5549981,12.951555 C15.4533206,13.0529973 15.295684,13.0723845 15.1724304,12.9985656 L13.8547803,12.2079754 C13.8162399,12.184961 13.7830888,12.1539528 13.7576056,12.1170785 L11.3856286,8.69088936 C11.2920326,8.555238 11.3194322,8.37028234 11.4482579,8.26766056 L12.7659785,7.21348414 L14.0386527,6.1976368 L16.3864167,2.54557243 C16.3980435,2.52679962 16.4115295,2.50916785 16.4278303,2.49174069 L17.025637,1.96464466 L17.3997832,2.40968523 L16.8979341,2.90728367 L14.5413824,6.57389772 C14.5233528,6.6009993 14.5018241,6.62560636 14.475622,6.64851468 L13.2741805,7.58458244 L13.2594591,8.1052368 L13.8208125,8.69833137 L14.6005383,8.51605461 L15.0709947,7.81441677 C15.0881534,7.78801158 15.0881534,7.78801158 15.1100902,7.76270099 L19.6611172,3.28238474 L20.0353553,3.7273336 L15.5797096,8.18161863 L15.1362126,8.81740817 L15.6435871,11.0414437 Z M15.2866773,12.3363852 L15.4933841,12.1715413 L15.0505728,11.2821596 C15.0428858,11.2590986 15.0377039,11.235256 15.0360101,11.2165335 L14.6304763,9.14585517 L13.8419369,9.34294097 C13.7303938,9.37605898 13.6096755,9.34467004 13.5288021,9.26184191 L12.7380056,8.47104469 C12.6793351,8.41186472 12.646615,8.33176015 12.6470845,8.24872344 L12.7287623,8.04494412 L12.039724,8.54960022 L14.2250786,11.6978874 L15.2866773,12.3363852 Z M7.95322023,15.5780679 L9.05741229,15.6280679 L9.00741229,16.2051639 L3.95,16.1551639 L4,15.5780679 L7.95322023,15.5780679 Z M15.3325647,12.9425877 L15.6461127,12.9925877 L15.5961127,13.5696837 L11.3293444,13.5196837 L11.3793444,12.9425877 L15.3325647,12.9425877 Z M17.1274008,17.472904 L17.1774008,17.422904 L19.8628809,17.472904 L19.8128809,18.05 L17.1274008,18 L17.1274008,17.472904 Z M16.0732087,17.472904 L16.1232087,17.422904 L16.7003047,17.472904 L16.6503047,18.05 L16.0732087,18 L16.0732087,17.472904 Z"></path>
        </g>
    </g>
</svg>